<svg width="236" height="75" viewBox="0 0 236 75" fill="none" xmlns="http://www.w3.org/2000/svg">
<path d="M33.4332 39.88C33.4332 42.84 32.8332 45.52 31.6332 47.92C30.4332 50.28 28.5932 52.16 26.1132 53.56C23.6732 54.92 20.5532 55.6 16.7532 55.6C11.4332 55.6 7.3732 54.16 4.5732 51.28C1.8132 48.36 0.433203 44.52 0.433203 39.76L0.433203 12.16L5.8332 12.16L5.8332 39.94C5.8332 43.42 6.7532 46.12 8.5932 48.04C10.4732 49.96 13.2932 50.92 17.0532 50.92C19.6532 50.92 21.7532 50.46 23.3532 49.54C24.9932 48.58 26.1932 47.28 26.9532 45.64C27.7132 43.96 28.0932 42.04 28.0932 39.88L28.0932 12.16H33.4332L33.4332 39.88ZM8.5932 3.46C8.5932 2.42 8.8732 1.68 9.4332 1.24C9.9932 0.759997 10.6532 0.519997 11.4132 0.519997C12.1732 0.519997 12.8332 0.759997 13.3932 1.24C13.9532 1.68 14.2332 2.42 14.2332 3.46C14.2332 4.46 13.9532 5.22 13.3932 5.74C12.8332 6.22 12.1732 6.46 11.4132 6.46C10.6532 6.46 9.9932 6.22 9.4332 5.74C8.8732 5.22 8.5932 4.46 8.5932 3.46ZM19.8732 3.46C19.8732 2.42 20.1332 1.68 20.6532 1.24C21.2132 0.759997 21.8732 0.519997 22.6332 0.519997C23.3932 0.519997 24.0532 0.759997 24.6132 1.24C25.1732 1.68 25.4532 2.42 25.4532 3.46C25.4532 4.46 25.1732 5.22 24.6132 5.74C24.0532 6.22 23.3932 6.46 22.6332 6.46C21.8732 6.46 21.2132 6.22 20.6532 5.74C20.1332 5.22 19.8732 4.46 19.8732 3.46ZM38.9199 55V19.6H40.7199V55H38.9199ZM44.3199 55V19.6H46.1199V55H44.3199ZM53.3199 55V19.6H56.9199L56.9199 55H53.3199ZM49.1799 74.38C48.5799 74.38 48.0199 74.24 47.4999 73.96C46.9799 73.68 46.5399 73.3 46.1799 72.82L45.5799 74.14H44.5599L44.5599 59.32H46.4199V59.44C46.3399 59.56 46.2799 59.66 46.2399 59.74C46.1999 59.86 46.1799 60.04 46.1799 60.28L46.1799 65.5C46.5399 64.94 46.9999 64.5 47.5599 64.18C48.1199 63.86 48.6799 63.7 49.2399 63.7C50.5199 63.7 51.5399 64.14 52.2999 65.02C53.0599 65.94 53.4399 67.24 53.4399 68.92C53.4399 70.08 53.2399 71.08 52.8399 71.92C52.4399 72.76 51.8999 73.38 51.2199 73.78C50.5799 74.18 49.8999 74.38 49.1799 74.38ZM48.9999 72.94C49.7999 72.94 50.4599 72.62 50.9799 71.98C51.4999 71.38 51.7599 70.4 51.7599 69.04C51.7599 67.72 51.5199 66.74 51.0399 66.1C50.5199 65.42 49.8399 65.08 48.9999 65.08C48.1599 65.08 47.4799 65.46 46.9599 66.22C46.4399 66.94 46.1799 67.9 46.1799 69.1C46.1799 71.66 47.1199 72.94 48.9999 72.94ZM58.7246 55L58.7246 19.6H60.5246L60.5246 55H58.7246ZM62.3246 55L62.3246 19.6H65.9246L65.9246 55L62.3246 55ZM69.5246 55L69.5246 19.6H71.3246L71.3246 55H69.5246ZM69.1046 74.38C67.5846 74.38 66.3846 73.92 65.5046 73C64.5846 72.08 64.1246 70.78 64.1246 69.1C64.1246 67.98 64.3446 67 64.7846 66.16C65.1846 65.36 65.7446 64.76 66.4646 64.36C67.1446 63.92 67.9246 63.7 68.8046 63.7C70.0446 63.7 71.0446 64.1 71.8046 64.9C72.5646 65.74 72.9446 66.96 72.9446 68.56C72.9446 68.72 72.9446 68.96 72.9446 69.28H65.6846C65.7246 70.52 66.0646 71.46 66.7046 72.1C67.3446 72.74 68.1646 73.06 69.1646 73.06C70.2446 73.06 71.1246 72.68 71.8046 71.92L72.7046 72.82C71.8246 73.86 70.6246 74.38 69.1046 74.38ZM71.3246 68.02C71.3246 67.06 71.0846 66.3 70.6046 65.74C70.1246 65.18 69.4846 64.9 68.6846 64.9C67.9646 64.9 67.3246 65.16 66.7646 65.68C66.2046 66.2 65.8646 66.98 65.7446 68.02H71.3246ZM78.5293 55L78.5293 19.6H80.3293L80.3293 55H78.5293ZM83.9293 55L83.9293 19.6H85.7293L85.7293 55H83.9293ZM89.3293 55L89.3293 19.6H96.5293L96.5293 55H89.3293ZM90.3493 63.7C91.4293 63.7 92.3293 64.08 93.0493 64.84L92.3293 66.04L92.2693 66.28L92.0893 66.16C92.0493 66 92.0093 65.88 91.9693 65.8C91.8893 65.68 91.7493 65.56 91.5493 65.44C91.1893 65.2 90.7493 65.08 90.2293 65.08C89.7093 65.08 89.2093 65.22 88.7293 65.5C88.2493 65.74 87.8693 66.14 87.5893 66.7C87.2693 67.26 87.1093 67.94 87.1093 68.74V74.14H85.4893V63.94H87.1693L87.1093 65.8C87.3893 65.16 87.8293 64.64 88.4293 64.24C89.0293 63.88 89.6693 63.7 90.3493 63.7ZM98.334 55L98.334 19.6L100.134 19.6L100.134 55H98.334ZM105.534 55L105.534 19.6H107.334L107.334 55H105.534ZM112.734 55L112.734 19.6H116.334L116.334 55H112.734ZM109.014 74.38C107.974 74.38 107.054 74.12 106.254 73.6C105.414 73.08 104.754 72.3 104.274 71.26C103.794 70.18 103.554 68.84 103.554 67.24C103.554 65.56 103.814 64.18 104.334 63.1C104.854 62.06 105.514 61.3 106.314 60.82C107.114 60.38 107.974 60.16 108.894 60.16C109.894 60.16 110.754 60.4 111.474 60.88C112.194 61.36 112.734 62.02 113.094 62.86L111.774 63.52L111.594 63.58L111.534 63.46V63.28C111.534 63.12 111.434 62.9 111.234 62.62C110.914 62.18 110.554 61.86 110.154 61.66C109.754 61.46 109.334 61.36 108.894 61.36C107.694 61.36 106.754 61.88 106.074 62.92C105.434 63.92 105.114 65.34 105.114 67.18C105.114 68.3 105.274 69.32 105.594 70.24C105.954 71.12 106.414 71.8 106.974 72.28C107.574 72.76 108.234 73 108.954 73C109.514 73 110.034 72.86 110.514 72.58C111.034 72.26 111.454 71.84 111.774 71.32L112.914 72.1C112.434 72.86 111.894 73.42 111.294 73.78C110.654 74.18 109.894 74.38 109.014 74.38ZM118.139 55V19.6H121.739V55H118.139ZM125.339 55V19.6H127.139V55H125.339ZM128.939 55V19.6H130.739V55H128.939ZM124.199 72.82H127.259V60.58H124.379V59.32H128.879V72.82H131.879V74.14H124.199V72.82ZM137.943 55V19.6H139.743V55H137.943ZM145.143 55V19.6L152.343 19.6V55H145.143ZM154.143 55V19.6H155.943V55H154.143ZM147.843 74.32C146.923 74.32 146.103 74.1 145.383 73.66C144.703 73.22 144.163 72.6 143.763 71.8C143.323 71 143.103 70.08 143.103 69.04C143.103 68 143.323 67.08 143.763 66.28C144.163 65.48 144.703 64.86 145.383 64.42C146.103 63.94 146.923 63.7 147.843 63.7C148.763 63.7 149.563 63.94 150.243 64.42C150.963 64.86 151.523 65.48 151.923 66.28C152.323 67.08 152.523 68 152.523 69.04C152.523 70.08 152.323 71 151.923 71.8C151.523 72.6 150.963 73.22 150.243 73.66C149.563 74.1 148.763 74.32 147.843 74.32ZM147.843 73C148.403 73 148.923 72.82 149.403 72.46C149.843 72.14 150.203 71.68 150.483 71.08C150.723 70.44 150.843 69.74 150.843 68.98C150.843 67.82 150.563 66.88 150.003 66.16C149.443 65.44 148.723 65.08 147.843 65.08C146.963 65.08 146.243 65.44 145.683 66.16C145.123 66.88 144.843 67.82 144.843 68.98C144.843 69.74 144.963 70.44 145.203 71.08C145.483 71.68 145.843 72.14 146.283 72.46C146.723 72.82 147.243 73 147.843 73ZM157.748 55V19.6H159.548V55H157.748ZM166.748 55V19.6H168.548V55H166.748ZM170.348 55V19.6L173.948 19.6V55H170.348ZM168.428 74.38C167.428 74.38 166.548 74.16 165.788 73.72C165.028 73.24 164.428 72.6 163.988 71.8C163.548 71 163.328 70.08 163.328 69.04C163.328 68.04 163.548 67.14 163.988 66.34C164.428 65.54 165.028 64.9 165.788 64.42C166.548 63.98 167.428 63.76 168.428 63.76C169.228 63.76 169.968 63.92 170.648 64.24C171.288 64.56 171.828 65.02 172.268 65.62L171.248 66.64L171.128 66.76L171.008 66.64C171.008 66.52 170.968 66.4 170.888 66.28C170.848 66.2 170.748 66.08 170.588 65.92C170.268 65.64 169.928 65.44 169.568 65.32C169.168 65.16 168.728 65.08 168.248 65.08C167.648 65.08 167.108 65.24 166.628 65.56C166.108 65.88 165.708 66.34 165.428 66.94C165.108 67.5 164.948 68.16 164.948 68.92C164.948 69.68 165.108 70.38 165.428 71.02C165.748 71.62 166.168 72.08 166.688 72.4C167.248 72.76 167.848 72.94 168.488 72.94C169.528 72.94 170.428 72.52 171.188 71.68L172.088 72.76C171.088 73.84 169.868 74.38 168.428 74.38ZM177.553 55V19.6H181.153V55H177.553ZM188.353 55V19.6H190.153V55H188.353ZM193.753 55V19.6H195.553V55H193.753ZM186.313 69.04L184.993 70.3V74.14H183.373V59.32H185.173V59.44C185.093 59.56 185.033 59.66 184.993 59.74C184.993 59.86 184.993 60.04 184.993 60.28V68.62L190.093 63.88C190.453 63.96 190.853 64 191.293 64H191.833L187.573 68.08L192.553 74.14L190.513 74.2L186.313 69.04ZM197.357 55V19.6L199.157 19.6V55H197.357ZM200.957 55V19.6H204.557V55H200.957ZM208.157 55V19.6H209.957V55H208.157ZM207.737 74.38C206.217 74.38 205.017 73.92 204.137 73C203.217 72.08 202.757 70.78 202.757 69.1C202.757 67.98 202.977 67 203.417 66.16C203.817 65.36 204.377 64.76 205.097 64.36C205.777 63.92 206.557 63.7 207.437 63.7C208.677 63.7 209.677 64.1 210.437 64.9C211.197 65.74 211.577 66.96 211.577 68.56C211.577 68.72 211.577 68.96 211.577 69.28H204.317C204.357 70.52 204.697 71.46 205.337 72.1C205.977 72.74 206.797 73.06 207.797 73.06C208.877 73.06 209.757 72.68 210.437 71.92L211.337 72.82C210.457 73.86 209.257 74.38 207.737 74.38ZM209.957 68.02C209.957 67.06 209.717 66.3 209.237 65.74C208.757 65.18 208.117 64.9 207.317 64.9C206.597 64.9 205.957 65.16 205.397 65.68C204.837 66.2 204.497 66.98 204.377 68.02H209.957ZM217.162 55V19.6H218.962V55H217.162ZM226.162 55V19.6H227.962V55H226.162ZM231.562 55V19.6H235.162V55H231.562ZM226.702 74.38C225.982 74.38 225.302 74.16 224.662 73.72C224.022 73.32 223.502 72.72 223.102 71.92C222.702 71.08 222.502 70.08 222.502 68.92C222.502 67.76 222.702 66.78 223.102 65.98C223.542 65.22 224.082 64.64 224.722 64.24C225.362 63.88 226.042 63.7 226.762 63.7C227.482 63.7 228.082 63.84 228.562 64.12C229.082 64.44 229.482 64.88 229.762 65.44V59.32H231.442V59.44C231.362 59.56 231.302 59.66 231.262 59.74C231.262 59.86 231.262 60.04 231.262 60.28V72.58C231.262 72.94 231.282 73.22 231.322 73.42C231.322 73.66 231.382 73.9 231.502 74.14H229.942C229.822 73.9 229.742 73.66 229.702 73.42C229.702 73.22 229.702 72.94 229.702 72.58C229.382 73.14 228.962 73.58 228.442 73.9C227.922 74.22 227.342 74.38 226.702 74.38ZM226.942 72.94C227.862 72.94 228.542 72.58 228.982 71.86C229.422 71.14 229.642 70.18 229.642 68.98C229.642 67.78 229.402 66.82 228.922 66.1C228.442 65.38 227.742 65.02 226.822 65.02C225.942 65.02 225.262 65.34 224.782 65.98C224.302 66.66 224.062 67.56 224.062 68.68C224.062 70 224.302 71.04 224.782 71.8C225.302 72.56 226.022 72.94 226.942 72.94Z" fill="white"/>
</svg>
